{"title":"Fantastic Four 2015 HDTS XVID AC3 HQ Hive-CM8","uid":12213730,"size":1452964918,"categoryP":"video","categoryS":"movies","magnet":"?xt=urn:btih:32eed7329f41eb4eb5acee2152bf55d13cfca7a0&amp;dn=Fantastic+Four+2015+HDTS+XVID+AC3+HQ+Hive-CM8&amp;tr=udp%3A%2F%2Ftracker.openbittorrent.com%3A80&amp;tr=udp%3A%2F%2Fopen.demonii.com%3A1337&amp;tr=udp%3A%2F%2Ftracker.coppersurfer.tk%3A6969&amp;tr=udp%3A%2F%2Fexodus.desync.com%3A6969","seeders":22,"leechers":11,"uploader":"SS132203","files":4,"time":1439188672,"description":"Fantastic Four 2015 HDTS XVID AC3 HQ Hive-CM8\n &lt;a href=&quot;\nhttp://imgsparrow.co/image/8Ev&quot; rel=&quot;nofollow&quot; target=&quot;_NEW&quot;&gt;\nhttp://imgsparrow.co/image/8Ev&lt;/a&gt;\n &lt;a href=&quot;\nhttp://imgsparrow.co/image/9b&quot; rel=&quot;nofollow&quot; target=&quot;_NEW&quot;&gt;\nhttp://imgsparrow.co/image/9b&lt;/a&gt;\n\nInfo : - \n\nThank CM8 Not ME!\n\nPlease Support The Filmmakers\nDon't Just Download Go Watch In Theater Also\n\n\nThx Hive\n\nCM8 Doing It Right The First Time\n\n\nSources:\n\nVideo: 720P Latino HDCAM\n\nAudio: Sweet Line Big Thx to S4NDM4N\n\n\nNotes:\n\nhere is another great quality cam, no movement, no autofocus problems, no flicker, all bright\nperfect as is should be.\ndone both avi and 720p from sourcefile whatever you prefer\n\nEncode:\n\nvideo was perfect, needed a bit rotating and fixing perspective, otherwise not much to do, it was already very bright\ncolours were good, fixed gamma relation to contrast, added sharpness and removed some noise in the video.\n\nAudio Sweet Line from S4NDM4N, lipsynced to my videos\n\nwill do me till retail\nenjoy\n\nVideo: 720x288 @bitrate 1800 2pass\nAudio: English AC3 2.0 Stereo\nSample: yes included\n\nPS: Still need Line for Pixels anyone?\n\n\n &lt;a href=&quot;\nhttp://www.imdb.com/title/tt1502712/&quot; rel=&quot;nofollow&quot; target=&quot;_NEW&quot;&gt;\nhttp://www.imdb.com/title/tt1502712/&lt;/a&gt;\n\n\nGeneral\nComplete name                  : Fantastic.Four.2015.HDTS.XVID.AC3.HQ.Hive-CM8.avi\nFormat                         : AVI\nFormat/Info                    : Audio Video Interleave\nFile size                      : 1.33 GiB\nDuration                       : 1h 32mn\nOverall bit rate               : 2 063 Kbps\nWriting application            : Nandub v1.0rc2\nWriting library                : Nandub build 1853/release\n\nVideo\nID                             : 0\nFormat                         : MPEG-4 Visual\nFormat profile                 : Advanced Simple@L5\nFormat settings, BVOP          : 2\nFormat settings, QPel          : Yes\nFormat settings, GMC           : No warppoints\nFormat settings, Matrix        : Default (H.263)\nMuxing mode                    : Packed bitstream\nCodec ID                       : XVID\nCodec ID/Hint                  : XviD\nDuration                       : 1h 32mn\nBit rate                       : 1 795 Kbps\nWidth                          : 720 pixels\nHeight                         : 288 pixels\nDisplay aspect ratio           : 2.500\nFrame rate                     : 29.970 fps\nColor space                    : YUV\nChroma subsampling             : 4:2:0\nBit depth                      : 8 bits\nScan type                      : Progressive\nCompression mode               : Lossy\nBits/(Pixel*Frame)             : 0.289\nStream size                    : 1.16 GiB (87%)\nWriting library                : XviD 1.2.1 (UTC 2008-12-04)\n\nAudio\nID                             : 1\nFormat                         : AC-3\nFormat/Info                    : Audio Coding 3\nMode extension                 : CM (complete main)\nFormat settings, Endianness    : Big\nCodec ID                       : 2000\nDuration                       : 1h 32mn\nBit rate mode                  : Constant\nBit rate                       : 256 Kbps\nChannel(s)                     : 2 channels\nChannel positions              : Front: L R\nSampling rate                  : 48.0 KHz\nBit depth                      : 16 bits\nCompression mode               : Lossy\nStream size                    : 169 MiB (12%)\nAlignment                      : Split accross interleaves\nInterleave, duration           : 33 ms (1.00 video frame)\nInterleave, preload duration   : 500 ms\n\nScreens : - \n &lt;a href=&quot;\nhttp://imgsparrow.co/image/8UD&quot; rel=&quot;nofollow&quot; target=&quot;_NEW&quot;&gt;\nhttp://imgsparrow.co/image/8UD&lt;/a&gt; &lt;a href=&quot;\nhttp://imgsparrow.co/image/8UG&quot; rel=&quot;nofollow&quot; target=&quot;_NEW&quot;&gt;\nhttp://imgsparrow.co/image/8UG&lt;/a&gt; &lt;a href=&quot;\nhttp://imgsparrow.co/image/8Ue&quot; rel=&quot;nofollow&quot; target=&quot;_NEW&quot;&gt;\nhttp://imgsparrow.co/image/8Ue&lt;/a&gt; &lt;a href=&quot;\nhttp://imgsparrow.co/image/8Ug&quot; rel=&quot;nofollow&quot; target=&quot;_NEW&quot;&gt;\nhttp://imgsparrow.co/image/8Ug&lt;/a&gt; &lt;a href=&quot;\nhttp://imgsparrow.co/image/8Uq&quot; rel=&quot;nofollow&quot; target=&quot;_NEW&quot;&gt;\nhttp://imgsparrow.co/image/8Uq&lt;/a&gt; &lt;a href=&quot;\nhttp://imgsparrow.co/image/8Uz&quot; rel=&quot;nofollow&quot; target=&quot;_NEW&quot;&gt;\nhttp://imgsparrow.co/image/8Uz&lt;/a&gt; &lt;a href=&quot;\nhttp://imgsparrow.co/image/8U7&quot; rel=&quot;nofollow&quot; target=&quot;_NEW&quot;&gt;\nhttp://imgsparrow.co/image/8U7&lt;/a&gt; &lt;a href=&quot;\nhttp://imgsparrow.co/image/8Uk&quot; rel=&quot;nofollow&quot; target=&quot;_NEW&quot;&gt;\nhttp://imgsparrow.co/image/8Uk&lt;/a&gt;\n &lt;a href=&quot;\nhttp://imgsparrow.co/image/N2&quot; rel=&quot;nofollow&quot; target=&quot;_NEW&quot;&gt;\nhttp://imgsparrow.co/image/N2&lt;/a&gt;","torrent":{"xt":"urn:btih:32eed7329f41eb4eb5acee2152bf55d13cfca7a0","amp;dn":"Fantastic+Four+2015+HDTS+XVID+AC3+HQ+Hive-CM8","amp;tr":["udp%3A%2F%2Ftracker.openbittorrent.com%3A80","udp%3A%2F%2Fopen.demonii.com%3A1337","udp%3A%2F%2Ftracker.coppersurfer.tk%3A6969","udp%3A%2F%2Fexodus.desync.com%3A6969"],"infoHash":"32eed7329f41eb4eb5acee2152bf55d13cfca7a0","infoHashBuffer":{"type":"Buffer","data":[50,238,215,50,159,65,235,78,181,172,238,33,82,191,85,209,60,252,167,160]},"announce":[],"urlList":[]}}